# xmcd
#
# Track frame offsets:
#	150
#	14111
#	29230
#	40526
#	56462
#	69976
#	80360
#	92925
#	104902
#	117366
#	136744
#	146745
#	156551
#	170465
#	184238
#	198386
#
# Disc length: 2877 seconds
#
# Revision: 0
# Processed by: cddbd v1.5.2PL0 Copyright (c) Steve Scherf et al.
# Submitted via: audiograbber 1.83.01
#
DISCID=ed0b3b10
DTITLE=Various Artist - Lieder der Heimat 1
DYEAR=1900
DGENRE=Volksmusik
TTITLE0=Conny Dellner - Trompeten Echo
TTITLE1=Helga Reichel - Die Berge, sie rufen
TTITLE2=Sepp Viellechner - Zwischen Zugspitze und Großglockner
TTITLE3=Maria Hellwig - Erzherzog-Johann-Jodler
TTITLE4=Das Berglandechon - Diesseits und jenseits der Alpen
TTITLE5=Marianne and Michael - Im schönsten Wiesengrunde
TTITLE6=Das Kollmannsberger Duo - Kameraden der Berge
TTITLE7=Die dre lustigen Moosacher - Komm' in die Jodlhütt'n
TTITLE8=Gitti und Erica - Die schöne Polkamusik
TTITLE9=Paul Körth - Innsbruck, du wunderschöne Alpenstadt
TTITLE10=Erich Edlinger - Wenn ich auf meine Almen gehe
TTITLE11=Die Westfälischen Nachtigallen - Mein Vater war ein Wandersmann
TTITLE12=Fred Bertelmann - Auf der Heide blüh'n die letzten Rosen
TTITLE13=Das Medium Terzett - Harmonica Hansl
TTITLE14=Heidi Kabel - Wie tut ihr mir doch alle Leid
TTITLE15=Auer Dirndl - Das Kufsteinlied
EXTD=
EXTT0=
EXTT1=
EXTT2=
EXTT3=
EXTT4=
EXTT5=
EXTT6=
EXTT7=
EXTT8=
EXTT9=
EXTT10=
EXTT11=
EXTT12=
EXTT13=
EXTT14=
EXTT15=
PLAYORDER=
